<svg id="visual" viewBox="0 0 900 600" width="900" height="600" xmlns="http://www.w3.org/2000/svg" xmlns:xlink="http://www.w3.org/1999/xlink" version="1.1"><g stroke-width="1" stroke-linejoin="bevel"><path d="M412 334L408 240L390 347Z" fill="#161a2f" stroke="#161a2f"></path><path d="M408 240L341 343L390 347Z" fill="#0d0f1c" stroke="#0d0f1c"></path><path d="M408 240L317 321L341 343Z" fill="#131728" stroke="#131728"></path><path d="M408 240L356 184L317 321Z" fill="#131728" stroke="#131728"></path><path d="M151 246L244 359L317 321Z" fill="#111524" stroke="#111524"></path><path d="M317 321L244 359L341 343Z" fill="#161a2f" stroke="#161a2f"></path><path d="M341 343L450 476L390 347Z" fill="#14182a" stroke="#14182a"></path><path d="M412 334L526 265L408 240Z" fill="#131728" stroke="#131728"></path><path d="M491 93L349 118L356 184Z" fill="#171b31" stroke="#171b31"></path><path d="M412 334L537 308L526 265Z" fill="#121626" stroke="#121626"></path><path d="M512 379L537 308L412 334Z" fill="#14182a" stroke="#14182a"></path><path d="M450 476L412 334L390 347Z" fill="#0d0f1c" stroke="#0d0f1c"></path><path d="M450 476L512 379L412 334Z" fill="#101322" stroke="#101322"></path><path d="M491 93L356 184L408 240Z" fill="#14182a" stroke="#14182a"></path><path d="M356 184L202 157L317 321Z" fill="#14182a" stroke="#14182a"></path><path d="M349 118L325 105L356 184Z" fill="#171b31" stroke="#171b31"></path><path d="M325 105L253 130L356 184Z" fill="#101322" stroke="#101322"></path><path d="M151 246L188 368L244 359Z" fill="#14182a" stroke="#14182a"></path><path d="M244 359L244 445L341 343Z" fill="#121626" stroke="#121626"></path><path d="M188 368L244 445L244 359Z" fill="#0e111e" stroke="#0e111e"></path><path d="M244 445L450 476L341 343Z" fill="#131728" stroke="#131728"></path><path d="M537 308L576 322L526 265Z" fill="#111524" stroke="#111524"></path><path d="M512 379L576 322L537 308Z" fill="#111524" stroke="#111524"></path><path d="M602 443L576 322L512 379Z" fill="#171b31" stroke="#171b31"></path><path d="M253 130L202 157L356 184Z" fill="#0e111e" stroke="#0e111e"></path><path d="M202 157L151 246L317 321Z" fill="#101322" stroke="#101322"></path><path d="M560 142L408 240L526 265Z" fill="#171b31" stroke="#171b31"></path><path d="M560 142L491 93L408 240Z" fill="#0f1220" stroke="#0f1220"></path><path d="M349 118L338 0L325 105Z" fill="#121626" stroke="#121626"></path><path d="M454 600L481 495L450 476Z" fill="#15192d" stroke="#15192d"></path><path d="M450 476L481 495L512 379Z" fill="#121626" stroke="#121626"></path><path d="M576 322L560 142L526 265Z" fill="#15192d" stroke="#15192d"></path><path d="M188 368L205 463L244 445Z" fill="#111524" stroke="#111524"></path><path d="M282 600L454 600L450 476Z" fill="#121626" stroke="#121626"></path><path d="M98 456L205 463L188 368Z" fill="#14182a" stroke="#14182a"></path><path d="M708 147L575 117L560 142Z" fill="#0d0f1c" stroke="#0d0f1c"></path><path d="M560 142L575 117L491 93Z" fill="#0d0f1c" stroke="#0d0f1c"></path><path d="M481 495L602 443L512 379Z" fill="#101322" stroke="#101322"></path><path d="M735 235L708 147L560 142Z" fill="#15192d" stroke="#15192d"></path><path d="M561 0L338 0L491 93Z" fill="#0e111e" stroke="#0e111e"></path><path d="M491 93L338 0L349 118Z" fill="#131728" stroke="#131728"></path><path d="M325 105L256 0L253 130Z" fill="#121626" stroke="#121626"></path><path d="M253 130L225 0L202 157Z" fill="#14182a" stroke="#14182a"></path><path d="M602 443L657 351L576 322Z" fill="#15192d" stroke="#15192d"></path><path d="M481 495L612 464L602 443Z" fill="#0d0f1c" stroke="#0d0f1c"></path><path d="M602 443L612 464L657 351Z" fill="#121626" stroke="#121626"></path><path d="M338 0L256 0L325 105Z" fill="#161a2f" stroke="#161a2f"></path><path d="M202 157L85 134L151 246Z" fill="#131728" stroke="#131728"></path><path d="M0 355L98 456L188 368Z" fill="#0d0f1c" stroke="#0d0f1c"></path><path d="M282 600L450 476L244 445Z" fill="#161a2f" stroke="#161a2f"></path><path d="M282 600L244 445L205 463Z" fill="#0f1220" stroke="#0f1220"></path><path d="M540 600L639 489L612 464Z" fill="#0d0f1c" stroke="#0d0f1c"></path><path d="M256 0L225 0L253 130Z" fill="#171b31" stroke="#171b31"></path><path d="M218 600L282 600L205 463Z" fill="#15192d" stroke="#15192d"></path><path d="M87 48L85 134L202 157Z" fill="#14182a" stroke="#14182a"></path><path d="M151 246L0 343L188 368Z" fill="#171b31" stroke="#171b31"></path><path d="M540 600L612 464L481 495Z" fill="#0d0f1c" stroke="#0d0f1c"></path><path d="M612 464L639 489L657 351Z" fill="#111524" stroke="#111524"></path><path d="M624 0L561 0L575 117Z" fill="#131728" stroke="#131728"></path><path d="M575 117L561 0L491 93Z" fill="#0f1220" stroke="#0f1220"></path><path d="M75 567L218 600L205 463Z" fill="#15192d" stroke="#15192d"></path><path d="M454 600L540 600L481 495Z" fill="#101322" stroke="#101322"></path><path d="M732 346L731 303L657 351Z" fill="#111524" stroke="#111524"></path><path d="M657 351L735 235L576 322Z" fill="#101322" stroke="#101322"></path><path d="M225 0L146 0L202 157Z" fill="#171b31" stroke="#171b31"></path><path d="M733 363L732 346L657 351Z" fill="#0f1220" stroke="#0f1220"></path><path d="M735 235L560 142L576 322Z" fill="#0f1220" stroke="#0f1220"></path><path d="M741 214L900 221L830 124Z" fill="#0d0f1c" stroke="#0d0f1c"></path><path d="M731 303L735 235L657 351Z" fill="#101322" stroke="#101322"></path><path d="M639 489L733 363L657 351Z" fill="#101322" stroke="#101322"></path><path d="M741 214L735 235L900 247Z" fill="#14182a" stroke="#14182a"></path><path d="M146 0L87 48L202 157Z" fill="#121626" stroke="#121626"></path><path d="M0 169L0 343L151 246Z" fill="#0f1220" stroke="#0f1220"></path><path d="M98 456L75 567L205 463Z" fill="#121626" stroke="#121626"></path><path d="M0 169L151 246L85 134Z" fill="#121626" stroke="#121626"></path><path d="M0 343L0 355L188 368Z" fill="#0f1220" stroke="#0f1220"></path><path d="M735 235L731 303L900 247Z" fill="#0f1220" stroke="#0f1220"></path><path d="M735 235L741 214L708 147Z" fill="#171b31" stroke="#171b31"></path><path d="M708 147L624 0L575 117Z" fill="#131728" stroke="#131728"></path><path d="M0 68L0 169L85 134Z" fill="#0f1220" stroke="#0f1220"></path><path d="M540 600L612 600L639 489Z" fill="#171b31" stroke="#171b31"></path><path d="M639 489L771 563L733 363Z" fill="#0d0f1c" stroke="#0d0f1c"></path><path d="M0 512L75 567L98 456Z" fill="#161a2f" stroke="#161a2f"></path><path d="M0 600L74 600L75 567Z" fill="#0d0f1c" stroke="#0d0f1c"></path><path d="M75 567L74 600L218 600Z" fill="#101322" stroke="#101322"></path><path d="M87 48L0 68L85 134Z" fill="#0d0f1c" stroke="#0d0f1c"></path><path d="M0 0L0 68L87 48Z" fill="#111524" stroke="#111524"></path><path d="M0 355L0 512L98 456Z" fill="#171b31" stroke="#171b31"></path><path d="M612 600L676 600L639 489Z" fill="#111524" stroke="#111524"></path><path d="M146 0L0 0L87 48Z" fill="#171b31" stroke="#171b31"></path><path d="M0 512L0 600L75 567Z" fill="#101322" stroke="#101322"></path><path d="M676 600L771 563L639 489Z" fill="#0d0f1c" stroke="#0d0f1c"></path><path d="M900 247L731 303L732 346Z" fill="#0d0f1c" stroke="#0d0f1c"></path><path d="M741 214L830 124L708 147Z" fill="#0e111e" stroke="#0e111e"></path><path d="M708 147L767 0L624 0Z" fill="#171b31" stroke="#171b31"></path><path d="M900 247L732 346L733 363Z" fill="#111524" stroke="#111524"></path><path d="M830 124L767 0L708 147Z" fill="#0d0f1c" stroke="#0d0f1c"></path><path d="M676 600L769 600L771 563Z" fill="#121626" stroke="#121626"></path><path d="M900 468L900 247L733 363Z" fill="#101322" stroke="#101322"></path><path d="M900 468L733 363L771 563Z" fill="#14182a" stroke="#14182a"></path><path d="M830 124L835 0L767 0Z" fill="#111524" stroke="#111524"></path><path d="M900 247L900 221L741 214Z" fill="#15192d" stroke="#15192d"></path><path d="M900 85L835 0L830 124Z" fill="#101322" stroke="#101322"></path><path d="M900 559L900 468L771 563Z" fill="#14182a" stroke="#14182a"></path><path d="M900 221L900 85L830 124Z" fill="#111524" stroke="#111524"></path><path d="M900 600L900 559L771 563Z" fill="#171b31" stroke="#171b31"></path><path d="M900 85L900 0L835 0Z" fill="#161a2f" stroke="#161a2f"></path><path d="M769 600L900 600L771 563Z" fill="#101322" stroke="#101322"></path></g></svg>