<svg id="visual" viewBox="0 0 900 600" width="900" height="600" xmlns="http://www.w3.org/2000/svg" xmlns:xlink="http://www.w3.org/1999/xlink" version="1.1"><g stroke-width="1" stroke-linejoin="bevel"><path d="M470 300L553 220L473 238Z" fill="#07080e" stroke="#07080e"></path><path d="M470 300L598 294L553 220Z" fill="#080a13" stroke="#080a13"></path><path d="M470 300L568 363L598 294Z" fill="#07080e" stroke="#07080e"></path><path d="M553 220L427 197L473 238Z" fill="#080912" stroke="#080912"></path><path d="M473 238L427 197L470 300Z" fill="#090c17" stroke="#090c17"></path><path d="M568 363L634 345L598 294Z" fill="#07080e" stroke="#07080e"></path><path d="M598 294L677 141L553 220Z" fill="#080912" stroke="#080912"></path><path d="M381 333L434 385L470 300Z" fill="#0b0e1c" stroke="#0b0e1c"></path><path d="M470 300L434 385L568 363Z" fill="#0b0d1b" stroke="#0b0d1b"></path><path d="M427 197L381 333L470 300Z" fill="#070910" stroke="#070910"></path><path d="M434 385L511 443L568 363Z" fill="#090a15" stroke="#090a15"></path><path d="M568 363L533 526L634 345Z" fill="#090c17" stroke="#090c17"></path><path d="M322 230L338 331L381 333Z" fill="#090c17" stroke="#090c17"></path><path d="M381 333L338 331L434 385Z" fill="#090c17" stroke="#090c17"></path><path d="M357 526L533 526L511 443Z" fill="#0a0c18" stroke="#0a0c18"></path><path d="M738 248L677 141L598 294Z" fill="#080a13" stroke="#080a13"></path><path d="M553 220L444 65L427 197Z" fill="#070910" stroke="#070910"></path><path d="M427 197L322 230L381 333Z" fill="#07080e" stroke="#07080e"></path><path d="M444 65L344 152L427 197Z" fill="#0a0d1a" stroke="#0a0d1a"></path><path d="M427 197L344 152L322 230Z" fill="#090b16" stroke="#090b16"></path><path d="M677 141L616 78L553 220Z" fill="#080912" stroke="#080912"></path><path d="M634 345L738 248L598 294Z" fill="#0a0d1a" stroke="#0a0d1a"></path><path d="M792 465L724 358L750 539Z" fill="#070910" stroke="#070910"></path><path d="M634 345L751 280L738 248Z" fill="#090c17" stroke="#090c17"></path><path d="M616 78L444 65L553 220Z" fill="#090c17" stroke="#090c17"></path><path d="M724 358L751 280L634 345Z" fill="#090c17" stroke="#090c17"></path><path d="M357 526L511 443L434 385Z" fill="#090c17" stroke="#090c17"></path><path d="M511 443L533 526L568 363Z" fill="#07080e" stroke="#07080e"></path><path d="M616 78L482 0L444 65Z" fill="#080a13" stroke="#080a13"></path><path d="M444 65L299 37L344 152Z" fill="#090a15" stroke="#090a15"></path><path d="M322 230L249 326L338 331Z" fill="#070910" stroke="#070910"></path><path d="M338 331L254 401L434 385Z" fill="#0b0d1b" stroke="#0b0d1b"></path><path d="M228 204L249 326L322 230Z" fill="#0a0c18" stroke="#0a0c18"></path><path d="M544 600L550 550L533 526Z" fill="#090a15" stroke="#090a15"></path><path d="M533 526L550 550L634 345Z" fill="#0b0d1b" stroke="#0b0d1b"></path><path d="M482 0L433 0L444 65Z" fill="#080a13" stroke="#080a13"></path><path d="M739 0L634 0L616 78Z" fill="#0a0c18" stroke="#0a0c18"></path><path d="M616 78L634 0L482 0Z" fill="#0a0c18" stroke="#0a0c18"></path><path d="M739 0L616 78L677 141Z" fill="#070910" stroke="#070910"></path><path d="M249 326L254 401L338 331Z" fill="#0a0c18" stroke="#0a0c18"></path><path d="M191 162L228 204L344 152Z" fill="#090b16" stroke="#090b16"></path><path d="M344 152L228 204L322 230Z" fill="#080912" stroke="#080912"></path><path d="M164 321L237 439L254 401Z" fill="#070910" stroke="#070910"></path><path d="M254 401L357 526L434 385Z" fill="#070910" stroke="#070910"></path><path d="M815 167L677 141L738 248Z" fill="#090b16" stroke="#090b16"></path><path d="M815 167L788 116L677 141Z" fill="#0a0c18" stroke="#0a0c18"></path><path d="M751 280L815 167L738 248Z" fill="#0b0d1b" stroke="#0b0d1b"></path><path d="M900 264L815 167L751 280Z" fill="#070910" stroke="#070910"></path><path d="M433 0L299 37L444 65Z" fill="#0a0c18" stroke="#0a0c18"></path><path d="M443 600L544 600L533 526Z" fill="#090c17" stroke="#090c17"></path><path d="M750 539L724 358L634 345Z" fill="#0b0d1b" stroke="#0b0d1b"></path><path d="M164 321L254 401L249 326Z" fill="#0b0e1c" stroke="#0b0e1c"></path><path d="M254 401L237 439L357 526Z" fill="#0a0c18" stroke="#0a0c18"></path><path d="M750 539L634 345L550 550Z" fill="#080912" stroke="#080912"></path><path d="M900 335L900 264L751 280Z" fill="#070910" stroke="#070910"></path><path d="M277 600L443 600L357 526Z" fill="#0a0d1a" stroke="#0a0d1a"></path><path d="M357 526L443 600L533 526Z" fill="#090b16" stroke="#090b16"></path><path d="M544 600L627 600L550 550Z" fill="#0a0d1a" stroke="#0a0d1a"></path><path d="M773 0L739 0L788 116Z" fill="#090c17" stroke="#090c17"></path><path d="M788 116L739 0L677 141Z" fill="#070910" stroke="#070910"></path><path d="M299 37L191 162L344 152Z" fill="#070910" stroke="#070910"></path><path d="M152 240L164 321L249 326Z" fill="#0a0d1a" stroke="#0a0d1a"></path><path d="M627 600L750 539L550 550Z" fill="#080912" stroke="#080912"></path><path d="M152 240L249 326L228 204Z" fill="#0b0d1b" stroke="#0b0d1b"></path><path d="M900 0L773 0L788 116Z" fill="#070910" stroke="#070910"></path><path d="M191 162L152 240L228 204Z" fill="#0a0c18" stroke="#0a0c18"></path><path d="M433 0L266 0L299 37Z" fill="#07080e" stroke="#07080e"></path><path d="M299 37L211 0L191 162Z" fill="#080a13" stroke="#080a13"></path><path d="M191 162L165 155L152 240Z" fill="#090c17" stroke="#090c17"></path><path d="M211 0L165 155L191 162Z" fill="#0a0d1a" stroke="#0a0d1a"></path><path d="M900 335L751 280L724 358Z" fill="#0a0d1a" stroke="#0a0d1a"></path><path d="M815 167L900 164L788 116Z" fill="#0a0c18" stroke="#0a0c18"></path><path d="M792 465L900 335L724 358Z" fill="#070910" stroke="#070910"></path><path d="M900 422L900 335L792 465Z" fill="#070910" stroke="#070910"></path><path d="M900 264L900 164L815 167Z" fill="#090c17" stroke="#090c17"></path><path d="M627 600L745 600L750 539Z" fill="#0b0d1b" stroke="#0b0d1b"></path><path d="M750 539L848 507L792 465Z" fill="#080912" stroke="#080912"></path><path d="M791 600L848 507L750 539Z" fill="#090c17" stroke="#090c17"></path><path d="M848 507L900 422L792 465Z" fill="#080a13" stroke="#080a13"></path><path d="M217 562L277 600L357 526Z" fill="#080a13" stroke="#080a13"></path><path d="M217 562L357 526L237 439Z" fill="#090a15" stroke="#090a15"></path><path d="M266 0L211 0L299 37Z" fill="#090c17" stroke="#090c17"></path><path d="M108 489L217 562L237 439Z" fill="#080a13" stroke="#080a13"></path><path d="M745 600L791 600L750 539Z" fill="#0b0d1b" stroke="#0b0d1b"></path><path d="M217 562L243 600L277 600Z" fill="#090b16" stroke="#090b16"></path><path d="M900 600L900 488L848 507Z" fill="#0b0e1c" stroke="#0b0e1c"></path><path d="M848 507L900 488L900 422Z" fill="#07080e" stroke="#07080e"></path><path d="M0 282L101 431L164 321Z" fill="#07080e" stroke="#07080e"></path><path d="M164 321L101 431L237 439Z" fill="#090b16" stroke="#090b16"></path><path d="M217 562L148 600L243 600Z" fill="#07080e" stroke="#07080e"></path><path d="M0 282L164 321L152 240Z" fill="#0b0e1c" stroke="#0b0e1c"></path><path d="M211 0L161 0L165 155Z" fill="#090c17" stroke="#090c17"></path><path d="M165 155L74 155L152 240Z" fill="#090c17" stroke="#090c17"></path><path d="M161 0L74 155L165 155Z" fill="#070910" stroke="#070910"></path><path d="M900 164L900 0L788 116Z" fill="#0b0d1b" stroke="#0b0d1b"></path><path d="M101 431L108 489L237 439Z" fill="#0b0e1c" stroke="#0b0e1c"></path><path d="M108 489L148 600L217 562Z" fill="#090b16" stroke="#090b16"></path><path d="M791 600L900 600L848 507Z" fill="#0b0d1b" stroke="#0b0d1b"></path><path d="M101 431L0 427L108 489Z" fill="#080a13" stroke="#080a13"></path><path d="M108 489L0 600L148 600Z" fill="#070910" stroke="#070910"></path><path d="M74 155L0 282L152 240Z" fill="#0b0d1b" stroke="#0b0d1b"></path><path d="M0 175L0 282L74 155Z" fill="#07080e" stroke="#07080e"></path><path d="M0 103L0 175L74 155Z" fill="#0a0c18" stroke="#0a0c18"></path><path d="M0 282L0 427L101 431Z" fill="#080912" stroke="#080912"></path><path d="M161 0L0 103L74 155Z" fill="#090a15" stroke="#090a15"></path><path d="M0 427L0 519L108 489Z" fill="#0a0d1a" stroke="#0a0d1a"></path><path d="M161 0L0 0L0 103Z" fill="#0a0c18" stroke="#0a0c18"></path><path d="M0 519L0 600L108 489Z" fill="#0a0c18" stroke="#0a0c18"></path></g></svg>